<svg xmlns="http://www.w3.org/2000/svg" viewBox="0 0 1391.99 719.52">
    <defs>
        <style>.cls-1{fill:#da79af;}.cls-2{fill:none;stroke:#fcf6c1;stroke-width:8px;}</style>
    </defs>
    <title>magefest-logo</title>
    <g id="Layer_2" data-name="Layer 2">
        <g id="Layer_1-2" data-name="Layer 1">
            <path class="cls-1"
                  d="M50.4,5.6h112l32.4,185.6h4l96-185.6h114L358,292H276.4l30.39-172h-4L211.6,292H146.4L116,120.4h-4L81.6,292H0Z"/>
            <path class="cls-1"
                  d="M546,5.6H669.59L709.19,292H622l-5.6-43.6H513.6L492.4,292H405.2Zm64.79,182.8L597.2,77.2h-4L540.8,188.4Z"/>
            <path class="cls-1"
                  d="M753.6,148C769.2,59.6,846.8,0,939.6,0c68.4,0,119.19,38.4,123.19,91.6l-80,14c-3.2-21.6-26-36.8-54-36.8-44.4,0-82.4,32.8-90.8,80.8-8.4,46.8,18.4,80.4,64,80.4,36.8,0,71.2-23.2,79.2-53.2H883.6l8.8-49.6,178,.4c-7.6,101.6-83.59,171.6-182,171.6C794.8,299.2,738,237.2,753.6,148Z"/>
            <path class="cls-1"
                  d="M1147.6,5.6H1368L1356.39,72H1217.6l-8.4,48h131.19l-9.6,54.8H1199.2l-8.8,50.8h142.79l-11.6,66.4H1096.8Z"/>
            <path class="cls-1"
                  d="M61.18,343.35h264l-15.42,86.71H147.42L137.3,487.88H277L264,564H123.81l-22.16,124.3H0Z"/>
            <path class="cls-1"
                  d="M384.22,343.35H649.67l-14,80H468.52l-10.11,57.81h158l-11.56,66H446.36l-10.6,61.19h172l-14,80H323Z"/>
            <path class="cls-1"
                  d="M662.92,574.11l95.39,1c-4.82,28.91,15.42,47.22,56.37,47.22,33.24,0,56.84-12.53,60.7-34.21,4.33-24.57-22.64-29.87-56.37-34.68-58.29-8.19-147.42-15.9-131.52-104.55,12-67.93,78.53-112.25,169.1-112.25,92,0,144.53,49.62,132,120.92l-92-1c5.78-30.35-14-47.21-48.18-47.21-32.28,0-54.92,14-58.29,33.72-4.34,25.53,28.42,29.87,67.44,35.17,57.33,8.67,134.9,21.68,120.44,105.51-12,67.92-82.86,111.77-178.25,111.77C704.83,695.52,650.88,645.41,662.92,574.11Z"/>
            <path class="cls-1" d="M1144,426.69H1036.06L1051,343.35h317l-14.45,83.34H1245.63l-46.25,261.6H1097.72Z"/>
            <path class="cls-2"
                  d="M69.64,25.6h112L214,211.2h4L314,25.6H428L377.23,312H295.64L326,140h-4l-91.2,172h-65.2l-30.4-171.6h-4L100.84,312H19.24Z"/>
            <path class="cls-2"
                  d="M565.24,25.6H688.83L728.43,312h-87.2l-5.6-43.6H532.84L511.64,312h-87.2ZM630,208.4,616.44,97.2h-4L560,208.4Z"/>
            <path class="cls-2"
                  d="M772.84,168c15.6-88.4,93.2-148,186-148,68.4,0,119.2,38.4,123.2,91.6l-80,14c-3.2-21.6-26-36.8-54-36.8-44.4,0-82.4,32.8-90.8,80.8-8.4,46.8,18.4,80.4,64,80.4,36.8,0,71.2-23.2,79.2-53.2h-97.6l8.8-49.6,178,.4c-7.59,101.6-83.59,171.6-182,171.6C814,319.2,757.24,257.2,772.84,168Z"/>
            <path class="cls-2"
                  d="M1166.84,25.6h220.39L1375.63,92H1236.84l-8.4,48h131.19l-9.6,54.8H1218.44l-8.8,50.8h142.79l-11.6,66.4H1116Z"/>
            <path class="cls-2"
                  d="M80.42,363.35h264L329,450.06H166.66l-10.12,57.82H296.25l-13,76.11H143.05l-22.16,124.3H19.24Z"/>
            <path class="cls-2"
                  d="M403.46,363.35H668.91l-14,80H487.76l-10.11,57.81h158l-11.57,66H465.6L455,628.32H627l-14,80H342.27Z"/>
            <path class="cls-2"
                  d="M682.16,594.11l95.39,1C772.73,624,793,642.29,833.92,642.29c33.24,0,56.84-12.53,60.7-34.21C899,583.51,872,578.21,838.25,573.4,780,565.21,690.83,557.5,706.73,468.85c12-67.93,78.53-112.25,169.1-112.25,92,0,144.53,49.62,132,120.92l-92-1c5.78-30.35-14-47.21-48.18-47.21-32.28,0-54.92,14-58.29,33.72-4.34,25.53,28.42,29.87,67.44,35.17,57.33,8.67,134.9,21.68,120.44,105.51-12,67.92-82.86,111.77-178.25,111.77C724.07,715.52,670.12,665.41,682.16,594.11Z"/>
            <path class="cls-2" d="M1163.21,446.69H1055.3l14.93-83.34h317l-14.45,83.34H1264.87l-46.25,261.6H1117Z"/>
        </g>
    </g>
</svg>
